<svg width="34" height="41" viewBox="0 0 34 41" fill="none" xmlns="http://www.w3.org/2000/svg">
<path d="M31.5161 12.6795L25.937 9.59455C25.2814 9.23206 24.4747 9.69252 24.4535 10.4413L24 26.4348L23.1767 35.1333C23.0632 36.332 22.4948 37.4416 21.5883 38.2341C21.0255 38.726 20.3537 39.0769 19.6283 39.2576L17.7101 39.7357C17.0043 39.9116 16.2849 40.0274 15.5595 40.082L13.804 40.214C11.3055 40.4018 8.79882 39.9792 6.5 38.9826L5.58684 38.6237C4.54941 38.2159 3.6458 37.5277 2.97699 36.636C2.66038 36.2138 2.40073 35.7518 2.20475 35.2619L1.5 33.5C1.17172 32.1869 1.17172 30.8131 1.5 29.5C2.14345 26.6045 3.84329 24.0529 6.26745 22.3436L7.43153 21.5228C7.45279 21.5079 7.47745 21.4984 7.50329 21.4954L14.8836 20.6308C15.478 20.5612 16 21.0256 16 21.624V23V26.4126C16 26.4249 15.9901 26.4348 15.9778 26.4348C15.6629 26.4348 15.3516 26.3677 15.0646 26.2379L13.4902 25.526C11.1203 24.4544 8.32827 25.0593 6.61439 27.0157L6.27864 27.3989C4.90059 28.972 4.61121 31.2224 5.54646 33.0929C6.157 34.314 7.22761 35.2425 8.52276 35.6743L9.5 36C10.8684 36.4009 12.3082 36.4953 13.7173 36.2767L14.8723 36.0974C15.2891 36.0327 15.6961 35.9159 16.0838 35.7498C17.8659 34.9861 19.0512 33.2671 19.1317 31.33L20.3709 1.50246C20.3825 1.22165 20.6136 1 20.8946 1H24.829C25.2323 1 25.5961 1.24225 25.7516 1.61435L27.1959 5.06957L27.4315 5.50015C28.5742 7.58844 30.5949 9.05259 32.9352 9.48795C32.9728 9.49494 33 9.52769 33 9.56588V11.8044C33 12.566 32.1826 13.048 31.5161 12.6795Z" fill="#FFFDFD" stroke="black"/>
</svg>
