<svg width="75" height="101" viewBox="0 0 75 101" fill="none" xmlns="http://www.w3.org/2000/svg">
<rect x="1.67834" y="25.5" width="72" height="73" fill="white" stroke="black"/>
<line x1="5.67834" y1="26" x2="5.67834" y2="99" stroke="black"/>
<path d="M1 25.533L33.0892 13.5165L65.1784 1.50006" stroke="black"/>
<line x1="65.6783" y1="1" x2="65.6783" y2="25" stroke="black"/>
<path d="M65 1.5L3 25H65V1.5Z" fill="#FFFCFC" stroke="black"/>
<path d="M74 26V98.5H6M6 98.5H1.5V26H6V98.5Z" stroke="black"/>
<path d="M20.3741 60.876L21.4661 60.304L24.5081 66.258L28.0831 58.718L29.1881 59.251L25.0931 67.896L23.9881 67.909L20.3741 60.876ZM29.7431 67.22L29.2491 66.531L29.8731 61.903L30.4191 61.383L34.2281 61.071L34.8261 61.396L35.9311 63.58L35.5021 64.451L31.4591 65.296L31.1991 64.113L34.4621 63.411L33.9161 62.332L31.0041 62.553L30.5361 66.128L35.0081 66.96L34.7741 68.156L29.7431 67.22ZM36.844 61.084L38.066 61.045L38.105 62.644L41.069 61.24L41.589 62.371L38.144 63.983L38.274 67.909L37.039 67.935L36.844 61.084ZM41.9825 67.584L42.2165 66.375L45.4925 66.999L46.4545 65.335L42.5805 64.789L42.0605 64.113L42.2555 61.604L42.8275 61.045L46.9875 60.72L47.0655 61.942L43.4515 62.215L43.3345 63.645L47.5075 64.243L47.9625 65.153L46.3375 67.987L45.7005 68.273L41.9825 67.584ZM49.3701 67.22L48.8761 66.531L49.5001 61.903L50.0461 61.383L53.8551 61.071L54.4531 61.396L55.5581 63.58L55.1291 64.451L51.0861 65.296L50.8261 64.113L54.0891 63.411L53.5431 62.332L50.6311 62.553L50.1631 66.128L54.6351 66.96L54.4011 68.156L49.3701 67.22Z" fill="black"/>
</svg>
